# xmcd
#
# Track frame offsets:
# 150
# 13775
# 30116
# 42405
# 58005
# 71807
# 83885
# 95427
# 112638
# 126857
#
# Disc length: 1854 seconds
#
# Revision: 1
# Processed by: cddbd v1.5.1PL2 Copyright (c) Steve Scherf et al.
# Submitted via: inCDius 2.0b9
#
DISCID=78073c0a
DTITLE=Vincent, Rhonda - Trouble Free
DYEAR=1900
DGENRE=
TTITLE0=Somebody
TTITLE1=You Beat All I've Ever Seen
TTITLE2=Trouble Free
TTITLE3=It Ain't Nothin' New
TTITLE4=An Old Memory (Found Its Way Back Home Again)
TTITLE5=What More Do You Want from Me?
TTITLE6=If I Could Stop Loving You
TTITLE7=At the Corner of Walk and Don't Walk
TTITLE8=The Blues Ain't Workin' on Me
TTITLE9=When I'm Through Fallin' Apart
EXTD=
EXTT0=
EXTT1=
EXTT2=
EXTT3=
EXTT4=
EXTT5=
EXTT6=
EXTT7=
EXTT8=
EXTT9=
PLAYORDER=
